HIERARCHY
ROOT pelvis
{
  OFFSET 0 100 0
  CHANNELS 6 Xposition Yposition Zposition Zrotation Xrotation Yrotation
  JOINT pelvis_right_femur
  {
    OFFSET -10.78128 -3.44521 -0.5502486
    CHANNELS 3 Zrotation Xrotation Yrotation
    JOINT right_femur_tibia
    {
      OFFSET -0.8047443 -44.0398 -0.1307829
      CHANNELS 3 Zrotation Xrotation Yrotation
      JOINT right_tibia_foot
      {
        OFFSET 3.006224 -47.83518 -5
        CHANNELS 3 Zrotation Xrotation Yrotation
        End Site
        {
          OFFSET 0 -5 15
        }
      }
    }
  }
  JOINT pelvis_left_femur
  {
    OFFSET 10.78128 -3.44521 -0.5502486
    CHANNELS 3 Zrotation Xrotation Yrotation
    JOINT left_femur_tibia
    {
      OFFSET 0.8047443 -44.0398 -0.1307829
      CHANNELS 3 Zrotation Xrotation Yrotation
      JOINT left_tibia_foot
      {
        OFFSET -4.370144 -48.10324 -4.275266
        CHANNELS 3 Zrotation Xrotation Yrotation
        End Site
        {
          OFFSET 0 -5 15
        }
      }
    }
  }
  JOINT pelvis_spine1
  {
    OFFSET 0 6.468898 -3.129235
    CHANNELS 3 Zrotation Xrotation Yrotation
    JOINT spine1
    {
      OFFSET 0 23.15396 4.99043
      CHANNELS 3 Zrotation Xrotation Yrotation
      JOINT spine2
      {
        OFFSET 0 20.79997 -5.064912
        CHANNELS 3 Zrotation Xrotation Yrotation
        JOINT neck
        {
          OFFSET 0 14.38658 9.616178
          CHANNELS 3 Zrotation Xrotation Yrotation
          End Site
          {
            OFFSET 0 20 0
          }
        }
      }
      JOINT right_manubrium
      {
        OFFSET -5.722621 16.35077 3.967754
        CHANNELS 3 Zrotation Xrotation Yrotation
        JOINT right_clavicle
        {
          OFFSET -13.16364 1.694482 -4.693211
          CHANNELS 3 Zrotation Xrotation Yrotation
          JOINT right_humerus
          {
            OFFSET -28.5034 -0.3100689 -2.792744
            CHANNELS 3 Zrotation Xrotation Yrotation
            JOINT right_radius
            {
              OFFSET -25.15693 0.02248979 -1.271978
              CHANNELS 3 Zrotation Xrotation Yrotation
              End Site
              {
                OFFSET -15 0 0
              }
            }
          }
        }
      }
      JOINT left_manubrium
      {
        OFFSET 5.722621 16.35077 3.967754
        CHANNELS 3 Zrotation Xrotation Yrotation
        JOINT left_clavicle
        {
          OFFSET 13.16364 1.694482 -4.693211
          CHANNELS 3 Zrotation Xrotation Yrotation
          JOINT left_humerus
          {
            OFFSET 29.39168 -1.063119 -2.237045
            CHANNELS 3 Zrotation Xrotation Yrotation
            JOINT left_radius
            {
              OFFSET 24.59957 -0.9528479 0.9047498
              CHANNELS 3 Zrotation Xrotation Yrotation
              End Site
              {
                OFFSET 15 -0 -0
              }
            }
          }
        }
      }
    }
  }
}
MOTION
Frames: 17
Frame Time: 0.0416666666667
0 103.5113 0 2.309843 -0.2366003 0.01751367 3.200709 -18.04489 10.33614 -0 38.30245 -0 -3.717038 -16.80708 -1.965219 -8.745838 8.242419 -24.07511 -0 2.312088 -0 16.92905 -13.02837 30.13829 -4.840301 -3.195084 5.71396 2.099431 9.881899 -6.960192 1.910153 21.93312 6.124542 2.58718 -24.46833 9.831853 5.82665 -20.58127 11.72722 86.18923 38.40864 -16.9521 -0 0 17.34081 -5.390999 7.600998 4.698484 5.711137 -17.92676 -1.741015 -91.15779 22.07373 20.10893 0 0 -17.50863 15.20271 13.62576 -2.988997
0.3676942 103.1076 1.321202 1.959436 0.368971 0.02786253 3.812106 -19.60807 10.56199 -0 37.05479 -0 -3.67421 -16.26942 -1.892291 -8.556517 8.758264 -23.77775 -0 2.696584 -0 16.89501 -13.46605 30.15509 -4.676104 -3.15021 5.671583 2.350915 9.972861 -7.13485 1.852015 21.6721 6.324324 2.647194 -24.98171 10.0743 5.971582 -20.54531 11.69503 86.15742 38.88686 -17.37455 -0 0 17.08196 -5.035671 7.64486 4.442575 5.793065 -18.21013 -1.587532 -91.20751 22.00796 20.18522 0 0 -17.91086 15.39478 13.06978 -3.181288
0.8615052 102.653 4.619094 0.5829049 0.3585406 -0.05047022 3.945035 -24.28016 3.516037 -0 25.86638 -0 -4.839478 -8.313921 1.074114 -6.476305 9.195613 -16.78456 -0 13.09278 -0 12.45278 -14.22966 23.41745 -3.207307 -2.702063 4.463763 2.651828 11.9115 -7.996861 0.2904601 20.67757 8.027147 4.879107 -22.59131 8.332386 8.082304 -18.33099 12.37861 83.50114 38.97067 -17.88083 -0 0 15.14932 -12.49809 11.61806 5.033602 8.551675 -22.24827 -3.050562 -89.31858 12.01738 15.5039 0 0 -15.07758 22.00593 10.45681 -14.94158
1.317021 102.1063 8.122143 0.7962069 0.8621405 -0.09347454 4.08163 -25.39824 3.663974 -0 23.69081 -0 -4.549263 -7.683637 1.044425 -6.856697 9.972307 -16.68577 -0 12.60545 -0 13.41071 -14.26314 23.59384 -3.427685 -2.602291 4.498745 2.814651 11.73471 -8.030933 0.3638279 20.63977 7.961835 4.576644 -23.0548 8.56175 7.443597 -18.38585 12.27733 84.60102 39.05755 -18.69902 -0 0 14.25633 -11.7734 10.90655 5.253354 8.18971 -22.15174 -3.125215 -88.44667 12.70441 14.8432 0 0 -17.68123 21.22177 9.32427 -13.70406
1.626257 101.2647 12.23385 0.6732196 1.879417 0.09767684 4.91128 -29.00219 4.258502 -0 18.64758 -0 -4.828007 -5.688405 -0.07636953 -7.376281 13.35884 -16.76156 -0 9.589424 -0 14.14812 -15.52225 23.84213 -3.363636 -2.108629 4.083502 3.110201 10.63298 -7.744344 1.031336 21.15317 7.532934 3.090416 -24.90678 9.878643 4.356779 -18.56621 11.66386 88.93496 36.78141 -21.09447 -0 0 10.18386 -9.781064 8.46756 6.404127 6.642203 -21.9809 -3.241666 -85.98205 17.21643 13.10223 0 0 -26.1419 17.4325 8.459625 -6.947208
1.918382 100.4667 16.97886 0.1585649 1.858275 0.2812438 5.336804 -29.75002 2.945051 -0 16.17202 -0 -5.556741 -3.709133 0.2940532 -6.842157 13.77027 -14.87023 -0 14.24197 -0 12.07311 -15.31009 21.5956 -2.613847 -2.160872 3.818567 3.040227 11.01516 -7.979589 0.7068482 20.94333 7.803384 3.422121 -24.38745 9.454747 4.317159 -18.07351 11.68891 89.26655 36.06065 -21.97842 -0 0 9.412042 -11.18337 9.042306 6.376435 7.039107 -23.0865 -3.590716 -85.66533 15.77524 12.41439 0 0 -26.42831 17.84217 8.148952 -8.055609
2.217507 99.83955 22.1077 -0.1405646 1.587504 0.3534847 5.507494 -29.17539 1.828668 -0 14.90289 -0 -6.126006 -2.666205 0.8078738 -6.337725 13.05673 -13.30504 -0 19.48454 -0 10.36253 -14.57715 19.79768 -2.101728 -2.269138 3.759481 2.936689 11.5461 -8.21105 0.3234611 20.69775 8.036023 4.00328 -23.53587 8.7614 4.931631 -17.59105 11.81495 88.60525 36.07398 -22.15506 -0 0 9.666863 -12.54342 9.863057 6.084833 7.618553 -23.89372 -3.847693 -86.03871 13.76589 12.27795 0 0 -24.61271 18.83129 7.960942 -10.28888
2.436262 99.23297 27.66816 -0.4156921 1.293102 0.461035 5.85248 -29.58914 1.288049 -0 13.38944 -0 -6.846923 -1.243199 0.4131436 -6.192079 14.08217 -12.42192 -0 21.26813 -0 9.041032 -14.63858 18.64382 -1.531745 -2.293176 3.54975 2.736187 11.46441 -8.146867 0.442787 20.94038 7.888607 3.60457 -23.58195 8.861495 3.587134 -17.59706 11.63665 90.42905 33.94277 -23.25379 -0 0 8.121179 -13.11914 9.49119 6.55052 7.261587 -24.53146 -4.194961 -85.23299 14.70174 11.70095 0 0 -27.33607 17.54934 8.438087 -8.098615
2.561723 98.67471 33.67369 -0.7468962 0.7432716 0.5936529 6.266288 -29.65007 0.7420422 -0 12.16416 -0 -7.75985 0.2514061 -0.1362831 -5.987967 15.09077 -11.41844 -0 23.62709 -0 7.417751 -14.57561 17.34582 -0.8210001 -2.390542 3.348788 2.454759 11.44473 -8.069472 0.606715 21.25118 7.650915 3.10775 -23.57855 8.945233 1.964782 -17.70203 11.44107 92.50024 31.1624 -24.3547 -0 0 6.477751 -13.9259 9.145424 7.09046 6.817607 -25.29149 -4.627052 -84.45162 15.74725 11.27432 0 0 -30.1663 16.02774 9.23704 -5.47742
2.651963 98.30905 39.95321 -0.903 0.01876557 0.6273778 6.4713 -28.34411 0.03367443 -0 11.48246 -0 -8.495549 1.103011 -0.1401284 -5.635266 14.45009 -10.20215 -0 28.39087 -0 6.003353 -13.70776 16.08111 -0.3160033 -2.558553 3.399601 2.201314 11.88642 -8.144965 0.4894996 21.28402 7.553134 3.244024 -22.93595 8.447333 1.628724 -17.63568 11.46956 92.9002 29.83007 -24.73157 -0 0 6.3456 -15.10046 9.493989 7.118942 6.904808 -25.98649 -5.027726 -84.61806 14.99363 11.42817 0 0 -29.68334 15.94135 9.695438 -5.654715
2.692142 98.14395 46.44047 -0.990222 -0.8807053 0.5563038 6.650075 -26.67459 -0.5993442 -0 10.93095 -0 -9.250143 1.846023 -0.2346032 -5.288726 13.61141 -9.08215 -0 33.13242 -0 4.771716 -12.75904 15.04889 0.1392479 -2.728088 3.503813 1.917765 12.35919 -8.173597 0.4370045 21.38156 7.3642 3.318934 -22.29508 7.955925 1.146114 -17.68497 11.49532 93.386 28.23396 -25.01071 -0 0 6.258803 -16.29343 9.792892 7.220223 6.897086 -26.62613 -5.489473 -84.83189 14.3996 11.71211 0 0 -29.18018 15.72145 10.30226 -5.566145
2.630639 98.16819 53.15208 -1.137532 -2.067145 0.4059069 7.002408 -24.98811 -1.001787 -0 10.5038 -0 -10.22733 2.84846 -0.7736681 -4.966148 13.25317 -8.004875 -0 37.45903 -0 3.528916 -11.90619 14.13919 0.7447878 -2.966338 3.596452 1.561451 12.80651 -8.135879 0.5896099 21.64206 6.941453 2.975236 -21.93326 7.69367 -0.2423059 -18.07883 11.42834 94.90306 25.25638 -25.54917 -0 0 5.59987 -17.52671 9.818836 7.652253 6.478466 -27.35717 -6.120652 -84.74423 14.66471 12.14446 0 0 -30.12681 14.60631 11.32917 -3.757321
2.46049 98.43958 59.98921 -1.24576 -3.430732 0.1486064 7.397648 -22.6787 -1.187773 -0 10.34998 -0 -11.21149 3.585967 -1.380406 -4.575643 12.35913 -6.986699 -0 42.40305 -0 2.562999 -10.74422 13.47575 1.301715 -3.228259 3.804955 1.214146 13.40486 -8.099383 0.7769167 21.87347 6.420277 2.614253 -21.57077 7.385533 -1.616954 -18.64141 11.39475 96.32116 22.25542 -25.86793 -0 0 5.285125 -18.74439 9.943054 8.078505 5.957627 -27.98268 -6.813634 -84.89963 14.82042 13.00288 0 0 -30.51876 13.50122 12.35362 -1.983089
2.198182 98.99218 66.78961 -1.241555 -4.801686 -0.2456849 7.696706 -19.6058 -1.199507 -0 10.3935 -0 -12.01532 3.742208 -1.833282 -4.097177 10.45975 -6.139497 -0 47.80002 -0 2.088855 -9.229576 13.19245 1.647434 -3.423563 4.164783 0.9251869 14.13275 -8.051402 0.921811 22.00478 5.901363 2.437979 -21.11207 6.946388 -2.481401 -19.24573 11.45218 97.04823 20.11323 -25.75157 -0 0 5.70899 -19.7831 10.26962 8.359654 5.495637 -28.32722 -7.462187 -85.46327 14.56796 14.27412 0 0 -29.58366 12.83089 13.12806 -1.034945
1.83985 99.79022 73.44032 -1.198809 -6.218068 -0.782809 7.948831 -16.05748 -0.9849093 -0 10.57432 -0 -12.71735 3.527338 -2.349495 -3.558991 8.008233 -5.460818 -0 52.82662 -0 2.028187 -7.588196 13.24774 1.871976 -3.569053 4.61669 0.6723393 14.90575 -7.957239 1.120885 22.10914 5.296543 2.199255 -20.75448 6.538953 -3.321141 -20.0481 11.53707 97.65808 18.15044 -25.36445 -0 0 6.455339 -20.64418 10.63096 8.715704 4.893704 -28.45003 -8.11583 -86.16087 14.40308 15.90286 0 0 -28.37522 12.08205 13.8037 0.07095485
1.38793 100.7763 79.84505 -1.148957 -7.628761 -1.452788 8.140048 -12.14332 -0.5181607 -0 10.87297 -0 -13.29052 2.943449 -2.958953 -2.959682 5.076658 -4.93414 -0 56.9789 -0 2.389301 -5.902468 13.60945 1.985167 -3.664859 5.146816 0.4675432 15.69737 -7.819139 1.380529 22.1665 4.596241 1.835188 -20.56937 6.201436 -4.20169 -21.11046 11.63971 98.22856 16.31427 -24.71058 -0 0 7.493293 -21.30109 11.01295 9.215717 4.113566 -28.34294 -8.755571 -86.92642 14.40185 17.91006 0 0 -27.15312 11.14636 14.3333 1.539459
0.8805253 101.8593 85.90749 -1.050793 -8.781768 -2.230954 8.122644 -7.909619 0.04033054 -0 11.13561 -0 -13.54241 1.71519 -3.391191 -2.280036 1.362176 -4.591941 -0 59.54542 -0 3.116784 -4.29009 14.24686 1.869995 -3.614108 5.727697 0.3334073 16.37892 -7.608335 1.597668 22.12821 3.947895 1.557529 -20.42002 5.851893 -4.60962 -22.22546 11.80508 98.10319 15.46841 -23.57458 -0 0 9.114835 -21.64898 11.49161 9.742254 3.393767 -27.88037 -9.20648 -87.83961 14.35321 20.10624 0 0 -25.33161 10.38198 14.54665 2.655422
